<svg xmlns="http://www.w3.org/2000/svg" version="1.1" xmlns:xlink="http://www.w3.org/1999/xlink" xmlns:svgjs="http://svgjs.com/svgjs" width="1440" height="1000" preserveAspectRatio="none" viewBox="0 0 1440 1000"><g mask="url(&quot;#SvgjsMask1005&quot;)" fill="none"><rect width="1440" height="1000" x="0" y="0" fill="#1e3266"></rect><path d="M1488 1000L0 1000 L0 588.05Q51.83 567.88, 72 619.7Q124.89 600.6, 144 653.49Q187.58 625.07, 216 668.64Q224.64 605.28, 288 613.92Q354.78 560.7, 408 627.48Q430.74 578.22, 480 600.95Q563.68 564.63, 600 648.32Q645.88 622.21, 672 668.09Q679.51 603.6, 744 611.11Q782.66 529.77, 864 568.43Q935.44 519.87, 984 591.3Q1083.57 570.87, 1104 670.44Q1157.45 603.89, 1224 657.35Q1207.59 568.94, 1296 552.54Q1336 472.53, 1416 512.53Q1464.88 489.4, 1488 538.28z" fill="#182f5d"></path><path d="M1560 1000L0 1000 L0 749.26Q57.59 734.85, 72 792.43Q72.17 672.6, 192 672.77Q229.88 590.65, 312 628.53Q381.38 577.91, 432 647.3Q520.08 663.38, 504 751.46Q569.83 697.29, 624 763.11Q638.58 705.69, 696 720.27Q711.86 616.13, 816 631.98Q886.55 582.53, 936 653.07Q1057.86 654.92, 1056 776.78Q1047.08 647.86, 1176 638.93Q1274.14 665.07, 1248 763.21Q1242.52 685.73, 1320 680.25Q1372.79 613.04, 1440 665.82Q1516.4 622.22, 1560 698.62z" fill="#25467d"></path><path d="M1464 1000L0 1000 L0 867.53Q38.08 833.61, 72 871.68Q130.05 857.73, 144 915.79Q152.6 852.38, 216 860.98Q203.37 776.35, 288 763.71Q317.22 720.93, 360 750.15Q420.37 738.51, 432 798.88Q473.38 720.26, 552 761.65Q642.12 731.76, 672 821.88Q749.31 779.19, 792 856.5Q847.91 840.41, 864 896.33Q870.24 830.57, 936 836.81Q960.75 789.55, 1008 814.3Q1030.45 764.75, 1080 787.2Q1167.01 754.21, 1200 841.22Q1269.39 790.62, 1320 860.01Q1380.77 848.78, 1392 909.55Q1418.72 864.27, 1464 890.99z" fill="#356cb1"></path><path d="M1464 1000L0 1000 L0 963.54Q27.23 870.77, 120 898Q161.85 867.85, 192 909.69Q307.76 905.46, 312 1021.22Q380.98 970.2, 432 1039.19Q436.41 971.6, 504 976.01Q521.04 873.05, 624 890.08Q695.45 841.53, 744 912.97Q800.98 897.95, 816 954.93Q840.81 859.74, 936 884.56Q983.67 860.23, 1008 907.91Q1108.61 888.52, 1128 989.13Q1170.98 960.11, 1200 1003.09Q1214.1 945.19, 1272 959.29Q1344.73 912.02, 1392 984.75Q1435.93 956.68, 1464 1000.62z" fill="white"></path></g><defs><mask id="SvgjsMask1005"><rect width="1440" height="1000" fill="#ffffff"></rect></mask></defs></svg>